Coordinates
version=1
nRows=7
nColumns=42
inDegrees=yes

Units are S.I. units (second, meters, Newtons, ...)
If the header above contains a line with 'inDegrees', this indicates whether rotational values are in degrees (yes) or radians (no).

endheader
time	pelvis_tilt	pelvis_list	pelvis_rotation	pelvis_tx	pelvis_ty	pelvis_tz	hip_flexion_r	hip_adduction_r	hip_rotation_r	knee_angle_r	knee_adduction_r	knee_angle_r_beta	ankle_angle_r	subtalar_angle_r	mtp_angle_r	hip_flexion_l	hip_adduction_l	hip_rotation_l	knee_angle_l	knee_adduction_l	knee_angle_l_beta	ankle_angle_l	subtalar_angle_l	mtp_angle_l	lumbar_extension	lumbar_bending	lumbar_rotation	arm_flex_r	arm_add_r	arm_rot_r	elbow_flex_r	pro_sup_r	wrist_flex_r	wrist_dev_r	arm_flex_l	arm_add_l	arm_rot_l	elbow_flex_l	pro_sup_l	wrist_flex_l	wrist_dev_l
      0.40000000	      9.08625803	      3.51581394	     -2.40259145	     -1.55632181	      0.90046414	      0.17103911	      3.76964749	     -7.93794295	     -0.28200352	     69.57056973	      5.60314483	      1.21423550	      0.45985221	    -11.64200788	     -9.58659958	      7.77009510	      7.98310954	    -23.70062933	     31.82097296	     -6.13681259	      0.55538075	     22.62717206	     23.19688644	     -9.58659958	    -21.54662138	     -2.75640849	     -1.03423245	      4.17369754	     -8.22130132	    -15.11261658	     29.59458236	     90.00000001	      0.00000000	      0.00000000	     -3.99779312	     -6.60702379	    -26.84196673	     37.61915073	     90.00000001	      0.00000000	      0.00000000
      0.41000000	      9.22412702	      3.38822719	     -2.51885729	     -1.54907323	      0.90136947	      0.17111490	      5.56453128	     -7.53044015	     -0.18886862	     70.62472031	      4.79300303	      1.23263390	      2.03658512	    -12.67173623	     -9.55484119	      6.72570750	      7.85037502	    -23.54204413	     31.31971923	     -5.81082420	      0.54663222	     22.94105727	     23.24485474	     -9.55484119	    -21.84978662	     -2.62656951	     -1.17376261	      4.04166560	     -8.36362783	    -15.22434166	     29.33626326	     90.00000001	      0.00000000	      0.00000000	     -3.64209899	     -6.75994656	    -26.58461966	     37.83303947	     90.00000001	      0.00000000	      0.00000000
      0.42000000	      9.27641126	      3.37605601	     -2.56288491	     -1.54197739	      0.90203943	      0.17084471	      7.44246808	     -7.40393561	      0.33802168	     71.49690548	      4.69244229	      1.24785641	      3.18500041	    -14.52132614	     -9.48527111	      5.84754071	      7.94378620	    -23.47524662	     30.81461584	     -5.72248045	      0.53781650	     23.33147959	     23.65358099	     -9.48527111	    -22.06991682	     -2.55849664	     -1.42479921	      4.01326875	     -8.38661525	    -16.01490399	     29.01823020	     90.00000001	      0.00000000	      0.00000000	     -3.37924735	     -6.99082549	    -25.72903085	     38.09495866	     90.00000001	      0.00000000	      0.00000000
      0.43000000	      9.37706196	      3.18327000	     -2.59526884	     -1.53484799	      0.90287442	      0.17086842	      9.15572309	     -6.87838408	      0.50261725	     71.92904898	      4.12927406	      1.25539873	      4.30799517	    -15.16571951	     -9.45836819	      4.87652743	      7.74621222	    -23.21239367	     30.35829347	     -5.42484550	      0.52985218	     23.57437986	     23.66560065	     -9.45836819	    -22.33951012	     -2.32359301	     -1.65168062	      3.87274060	     -8.50275850	    -16.21320793	     28.89599639	     90.00000001	      0.00000000	      0.00000000	     -3.03902259	     -7.15485986	    -25.47993498	     38.25157888	     90.00000001	      0.00000000	      0.00000000
      0.44000000	      9.46505279	      3.01427431	     -2.49528156	     -1.52780739	      0.90366392	      0.17060826	     10.77086268	     -6.48855203	      0.63749221	     72.04919658	      3.82640032	      1.25749570	      5.24520708	    -15.72768084	     -9.43388023	      3.97790552	      7.61531942	    -22.90731787	     29.93436343	     -5.22975294	      0.52245320	     23.83659424	     23.69350006	     -9.43388023	    -22.61796809	     -2.06551409	     -1.99051270	      3.73494819	     -8.60231418	    -16.45699081	     28.80437848	     90.00000001	      0.00000000	      0.00000000	     -2.68702058	     -7.30968627	    -25.13730920	     38.39607507	     90.00000001	      0.00000000	      0.00000000
      0.45000000	      9.63108523	      2.90909426	     -2.38273752	     -1.52070044	      0.90466458	      0.17040608	     12.13167548	     -6.18587336	      1.04508424	     71.72614628	      3.90302724	      1.25185741	      5.95536319	    -16.76211108	     -9.37769824	      2.90397220	      7.58320283	    -22.40588067	     29.36977278	     -4.94425429	      0.51259924	     24.30826493	     23.94264938	     -9.37769824	    -22.96054895	     -1.88379719	     -2.28961851	      3.65356034	     -8.55089814	    -17.49360659	     28.63405484	     90.00000001	      0.00000000	      0.00000000	     -2.35805777	     -7.66892773	    -24.04743745	     38.50455033	     90.00000001	      0.00000000	      0.00000000
      0.46000000	      9.61775605	      2.71159084	     -2.22189276	     -1.51379956	      0.90525554	      0.17010743	     13.66193750	     -5.75324437	      1.13605842	     71.17960782	      3.70169022	      1.24231852	      6.59305736	    -16.86994635	     -9.34672771	      2.20895316	      7.45484178	    -22.00889667	     29.04510747	     -4.85605715	      0.50693276	     24.49415257	     23.89602773	     -9.34672771	    -23.12331254	     -1.56864266	     -2.59498365	      3.47569349	     -8.64250947	    -17.81302217	     28.61484229	     90.00000001	      0.00000000	      0.00000000	     -1.97617513	     -7.83457106	    -23.68101727	     38.65001515	     90.00000001	      0.00000000	      0.00000000
